<svg width="91" height="94" viewBox="0 0 91 94" fill="none" xmlns="http://www.w3.org/2000/svg">
<g clip-path="url(#clip0_1894_7395)">
<mask id="mask0_1894_7395" style="mask-type:luminance" maskUnits="userSpaceOnUse" x="0" y="0" width="91" height="92">
<path d="M91 0.341309H0V91.105H91V0.341309Z" fill="white"/>
</mask>
<g mask="url(#mask0_1894_7395)">
<path d="M87.6765 14.874C87.6856 17.9482 86.4659 20.9054 84.276 23.0852C82.0905 25.2695 79.1205 26.5009 76.0146 26.5144C69.5536 26.492 64.3302 21.283 64.3484 14.8785C64.3302 8.47406 69.5536 3.26508 76.0146 3.24262C79.116 3.25161 82.0905 4.48307 84.276 6.66282C86.4659 8.84707 87.6856 11.7954 87.6765 14.874ZM75.9557 61.0895C74.7949 61.0895 73.6705 61.2245 72.5825 61.4761C71.553 61.8941 70.397 62.1321 69.3494 62.6761C68.2796 63.2423 67.2683 63.9165 66.3345 64.6851C64.2216 66.3838 62.3171 68.1682 60.0319 69.6692C57.121 71.5795 53.9744 73.1973 50.6236 74.1816C47.2773 75.1658 43.7181 75.1658 40.3764 74.1816C32.673 71.9164 25.4183 66.9905 21.3739 59.9481C19.5738 56.7254 18.1365 53.3099 17.0982 49.7727C16.3002 47.1209 16.3002 44.303 17.0982 41.6513C18.1365 38.1143 19.5693 34.7031 21.3739 31.4761C22.9382 28.7572 25.2506 26.5953 27.1549 24.1234C29.1228 21.5391 30.152 18.3706 30.084 15.1347C29.9478 8.85158 25.9307 3.30104 19.9683 1.16172C13.743 -1.02254 6.65611 1.25611 2.82023 6.58192C0.983906 9.13922 0 12.1954 0 15.3324C0 17.8853 0.829747 20.3841 2.04943 22.6088C3.28271 24.874 5.18706 26.5594 6.73773 28.5998C9.48541 32.2088 11.8341 36.2358 13.1263 40.6041C14.1148 43.9391 14.1148 47.4851 13.1263 50.8244C12.0472 54.4649 10.229 57.8625 8.07983 60.9726C6.42486 63.3818 4.17593 65.3278 2.55272 67.7368C-1.83179 74.2354 -0.15416 83.4536 6.10294 88.1455C11.7797 92.4109 20.4263 91.813 25.5226 86.8513C29.9524 82.5502 35.5204 79.9164 41.4329 78.1457C44.0852 77.3501 46.9148 77.3501 49.5671 78.1457C52.9134 79.1029 56.1325 80.4423 59.1659 82.1367C60.7121 83.0219 62.1812 84.0243 63.5641 85.1478C65.3912 86.6445 66.9555 88.3523 69.0866 89.4488C71.2675 90.5635 73.6978 91.13 76.1553 91.0985C84.3891 90.9904 91.0907 84.1366 90.9955 75.9253C90.9047 67.7144 84.2034 61.0895 75.9557 61.0895Z" fill="#751A47"/>
</g>
</g>
<defs>
<clipPath id="clip0_1894_7395">
<rect width="91" height="93.6" fill="white"/>
</clipPath>
</defs>
</svg>
