<svg width="325" height="128" viewBox="0 0 325 128" fill="none" xmlns="http://www.w3.org/2000/svg">
<path d="M92.602 36.8101C92.61 39.5212 91.5446 42.125 89.6325 44.049C87.7205 45.973 85.1247 47.0582 82.4136 47.0701C79.7025 47.0582 77.1067 45.973 75.1946 44.053C73.2826 42.129 72.2132 39.5252 72.2212 36.8141C72.2132 34.0991 73.2826 31.4953 75.1946 29.5713C77.1067 27.6513 79.7025 26.5661 82.4136 26.5581C88.0584 26.574 92.6179 31.1614 92.602 36.8101ZM82.3619 77.548C81.3482 77.548 80.3664 77.6672 79.4163 77.8858H79.4123C78.5099 78.2555 77.5042 78.4662 76.5899 78.9432C75.6558 79.4441 74.7733 80.0364 73.9544 80.7162C72.1099 82.2148 70.4443 83.785 68.4487 85.1088C65.9046 86.7943 63.1577 88.2174 60.228 89.0879C57.3063 89.9545 54.1976 89.9545 51.2759 89.0879C44.5459 87.0884 38.2094 82.7475 34.6755 76.5422C33.1013 73.7 31.8451 70.6907 30.9388 67.5702C30.2431 65.2328 30.2431 62.7483 30.9388 60.4149C31.8451 57.2943 33.1013 54.2851 34.6755 51.4468C36.039 49.0498 38.0623 47.1417 39.724 44.9633C41.4452 42.6815 42.3436 39.8909 42.284 37.0407C42.1647 31.5033 38.6546 26.6098 33.4471 24.7256C28.0091 22.8016 21.8157 24.809 18.4646 29.5037C16.8626 31.7537 16 34.4489 16 37.2156C16 39.4656 16.7235 41.6678 17.7888 43.6276C18.8661 45.6271 20.5317 47.1099 21.8873 48.9106C24.2883 52.0908 26.3395 55.6407 27.4684 59.4886C28.3311 62.4303 28.3311 65.5548 27.4684 68.5004C26.5263 71.7084 24.9362 74.7017 23.0599 77.4446C21.613 79.5673 19.6492 81.2807 18.2301 83.4074C14.398 89.1356 15.8648 97.257 21.3307 101.395C26.2918 105.156 33.8447 104.627 38.3008 100.254C42.1687 96.4619 47.0343 94.1404 52.1981 92.5821C54.5157 91.8785 56.9882 91.8785 59.3058 92.5821C62.2275 93.4249 65.042 94.6055 67.6934 96.1002C69.045 96.8793 70.329 97.7618 71.5335 98.7516C73.1315 100.071 74.499 101.578 76.3594 102.544C78.2675 103.526 80.3902 104.027 82.5368 103.999C89.7319 103.903 95.5834 97.8612 95.5039 90.6224C95.4244 83.3875 89.5689 77.548 82.3619 77.548Z" fill="#882F5B"/>
<mask id="path-2-outside-1_1848_1297" maskUnits="userSpaceOnUse" x="137.505" y="26" width="168" height="74" fill="black">
<rect fill="white" x="137.505" y="26" width="168" height="74"/>
<path d="M138.856 97V30.0909H148.951V88.3097H179.269V97H138.856ZM188.161 97V46.8182H197.93V97H188.161ZM193.094 39.0753C191.396 39.0753 189.936 38.509 188.717 37.3764C187.519 36.2221 186.92 34.8499 186.92 33.2599C186.92 31.6482 187.519 30.276 188.717 29.1435C189.936 27.9891 191.396 27.4119 193.094 27.4119C194.793 27.4119 196.242 27.9891 197.44 29.1435C198.659 30.276 199.269 31.6482 199.269 33.2599C199.269 34.8499 198.659 36.2221 197.44 37.3764C196.242 38.509 194.793 39.0753 193.094 39.0753ZM219 67.2045V97H209.231V46.8182H218.608V54.9858H219.228C220.383 52.3286 222.191 50.1941 224.652 48.5824C227.135 46.9706 230.26 46.1648 234.028 46.1648C237.448 46.1648 240.442 46.8835 243.013 48.321C245.583 49.7367 247.576 51.8494 248.991 54.6591C250.407 57.4687 251.115 60.9427 251.115 65.081V97H241.346V66.2571C241.346 62.6198 240.399 59.7775 238.504 57.7301C236.609 55.661 234.006 54.6264 230.696 54.6264C228.431 54.6264 226.416 55.1165 224.652 56.0966C222.909 57.0767 221.526 58.5142 220.503 60.4091C219.501 62.2822 219 64.5473 219 67.2045ZM283.513 98.0128C278.656 98.0128 274.475 96.9129 270.968 94.7131C267.483 92.4915 264.804 89.4313 262.931 85.5327C261.058 81.634 260.121 77.169 260.121 72.1378C260.121 67.0412 261.08 62.5436 262.996 58.6449C264.913 54.7244 267.614 51.6643 271.099 49.4645C274.584 47.2647 278.689 46.1648 283.415 46.1648C287.227 46.1648 290.625 46.8726 293.609 48.2884C296.593 49.6823 298.999 51.6425 300.829 54.169C302.68 56.6955 303.78 59.6468 304.129 63.0227H294.621C294.099 60.6705 292.901 58.6449 291.028 56.946C289.176 55.2472 286.693 54.3977 283.579 54.3977C280.856 54.3977 278.471 55.1165 276.424 56.554C274.398 57.9697 272.819 59.9953 271.687 62.6307C270.554 65.2443 269.988 68.3371 269.988 71.9091C269.988 75.5682 270.543 78.7263 271.654 81.3835C272.765 84.0407 274.333 86.099 276.359 87.5582C278.406 89.0175 280.813 89.7472 283.579 89.7472C285.43 89.7472 287.107 89.4096 288.61 88.7344C290.135 88.0374 291.409 87.0464 292.433 85.7614C293.478 84.4763 294.208 82.9299 294.621 81.1222H304.129C303.78 84.3674 302.724 87.2642 300.959 89.8125C299.195 92.3608 296.832 94.3646 293.87 95.8239C290.93 97.2831 287.477 98.0128 283.513 98.0128Z"/>
</mask>
<path d="M138.856 97V30.0909H148.951V88.3097H179.269V97H138.856ZM188.161 97V46.8182H197.93V97H188.161ZM193.094 39.0753C191.396 39.0753 189.936 38.509 188.717 37.3764C187.519 36.2221 186.92 34.8499 186.92 33.2599C186.92 31.6482 187.519 30.276 188.717 29.1435C189.936 27.9891 191.396 27.4119 193.094 27.4119C194.793 27.4119 196.242 27.9891 197.44 29.1435C198.659 30.276 199.269 31.6482 199.269 33.2599C199.269 34.8499 198.659 36.2221 197.44 37.3764C196.242 38.509 194.793 39.0753 193.094 39.0753ZM219 67.2045V97H209.231V46.8182H218.608V54.9858H219.228C220.383 52.3286 222.191 50.1941 224.652 48.5824C227.135 46.9706 230.26 46.1648 234.028 46.1648C237.448 46.1648 240.442 46.8835 243.013 48.321C245.583 49.7367 247.576 51.8494 248.991 54.6591C250.407 57.4687 251.115 60.9427 251.115 65.081V97H241.346V66.2571C241.346 62.6198 240.399 59.7775 238.504 57.7301C236.609 55.661 234.006 54.6264 230.696 54.6264C228.431 54.6264 226.416 55.1165 224.652 56.0966C222.909 57.0767 221.526 58.5142 220.503 60.4091C219.501 62.2822 219 64.5473 219 67.2045ZM283.513 98.0128C278.656 98.0128 274.475 96.9129 270.968 94.7131C267.483 92.4915 264.804 89.4313 262.931 85.5327C261.058 81.634 260.121 77.169 260.121 72.1378C260.121 67.0412 261.08 62.5436 262.996 58.6449C264.913 54.7244 267.614 51.6643 271.099 49.4645C274.584 47.2647 278.689 46.1648 283.415 46.1648C287.227 46.1648 290.625 46.8726 293.609 48.2884C296.593 49.6823 298.999 51.6425 300.829 54.169C302.68 56.6955 303.78 59.6468 304.129 63.0227H294.621C294.099 60.6705 292.901 58.6449 291.028 56.946C289.176 55.2472 286.693 54.3977 283.579 54.3977C280.856 54.3977 278.471 55.1165 276.424 56.554C274.398 57.9697 272.819 59.9953 271.687 62.6307C270.554 65.2443 269.988 68.3371 269.988 71.9091C269.988 75.5682 270.543 78.7263 271.654 81.3835C272.765 84.0407 274.333 86.099 276.359 87.5582C278.406 89.0175 280.813 89.7472 283.579 89.7472C285.43 89.7472 287.107 89.4096 288.61 88.7344C290.135 88.0374 291.409 87.0464 292.433 85.7614C293.478 84.4763 294.208 82.9299 294.621 81.1222H304.129C303.78 84.3674 302.724 87.2642 300.959 89.8125C299.195 92.3608 296.832 94.3646 293.87 95.8239C290.93 97.2831 287.477 98.0128 283.513 98.0128Z" fill="#882F5B"/>
<path d="M138.856 97H137.856V98H138.856V97ZM138.856 30.0909V29.0909H137.856V30.0909H138.856ZM148.951 30.0909H149.951V29.0909H148.951V30.0909ZM148.951 88.3097H147.951V89.3097H148.951V88.3097ZM179.269 88.3097H180.269V87.3097H179.269V88.3097ZM179.269 97V98H180.269V97H179.269ZM138.856 97H139.856V30.0909H138.856H137.856V97H138.856ZM138.856 30.0909V31.0909H148.951V30.0909V29.0909H138.856V30.0909ZM148.951 30.0909H147.951V88.3097H148.951H149.951V30.0909H148.951ZM148.951 88.3097V89.3097H179.269V88.3097V87.3097H148.951V88.3097ZM179.269 88.3097H178.269V97H179.269H180.269V88.3097H179.269ZM179.269 97V96H138.856V97V98H179.269V97ZM188.161 97H187.161V98H188.161V97ZM188.161 46.8182V45.8182H187.161V46.8182H188.161ZM197.93 46.8182H198.93V45.8182H197.93V46.8182ZM197.93 97V98H198.93V97H197.93ZM188.717 37.3764L188.023 38.0965L188.029 38.1029L188.036 38.1092L188.717 37.3764ZM188.717 29.1435L189.404 29.8701L189.404 29.8698L188.717 29.1435ZM197.44 29.1435L196.746 29.8635L196.752 29.87L196.759 29.8763L197.44 29.1435ZM197.44 37.3764L198.127 38.1031L198.127 38.1027L197.44 37.3764ZM188.161 97H189.161V46.8182H188.161H187.161V97H188.161ZM188.161 46.8182V47.8182H197.93V46.8182V45.8182H188.161V46.8182ZM197.93 46.8182H196.93V97H197.93H198.93V46.8182H197.93ZM197.93 97V96H188.161V97V98H197.93V97ZM193.094 39.0753V38.0753C191.642 38.0753 190.428 37.6005 189.397 36.6436L188.717 37.3764L188.036 38.1092C189.445 39.4174 191.149 40.0753 193.094 40.0753V39.0753ZM188.717 37.3764L189.41 36.6563C188.398 35.6807 187.92 34.5645 187.92 33.2599H186.92H185.92C185.92 35.1353 186.639 36.7634 188.023 38.0965L188.717 37.3764ZM186.92 33.2599H187.92C187.92 31.9302 188.4 30.8187 189.404 29.8701L188.717 29.1435L188.03 28.4168C186.637 29.7334 185.92 31.3662 185.92 33.2599H186.92ZM188.717 29.1435L189.404 29.8698C190.436 28.8934 191.648 28.4119 193.094 28.4119V27.4119V26.4119C191.143 26.4119 189.437 27.0848 188.029 28.4172L188.717 29.1435ZM193.094 27.4119V28.4119C194.541 28.4119 195.738 28.893 196.746 29.8635L197.44 29.1435L198.133 28.4234C196.745 27.0852 195.046 26.4119 193.094 26.4119V27.4119ZM197.44 29.1435L196.759 29.8763C197.783 30.8266 198.269 31.9364 198.269 33.2599H199.269H200.269C200.269 31.36 199.536 29.7255 198.12 28.4107L197.44 29.1435ZM199.269 33.2599H198.269C198.269 34.5583 197.785 35.6727 196.752 36.6501L197.44 37.3764L198.127 38.1027C199.534 36.7714 200.269 35.1415 200.269 33.2599H199.269ZM197.44 37.3764L196.753 36.6498C195.746 37.601 194.546 38.0753 193.094 38.0753V39.0753V40.0753C195.04 40.0753 196.737 39.417 198.127 38.1031L197.44 37.3764ZM219 97V98H220V97H219ZM209.231 97H208.231V98H209.231V97ZM209.231 46.8182V45.8182H208.231V46.8182H209.231ZM218.608 46.8182H219.608V45.8182H218.608V46.8182ZM218.608 54.9858H217.608V55.9858H218.608V54.9858ZM219.228 54.9858V55.9858H219.884L220.146 55.3842L219.228 54.9858ZM224.652 48.5824L224.107 47.7436L224.104 47.7458L224.652 48.5824ZM243.013 48.321L242.524 49.1938L242.53 49.1969L243.013 48.321ZM248.991 54.6591L248.098 55.1091V55.1091L248.991 54.6591ZM251.115 97V98H252.115V97H251.115ZM241.346 97H240.346V98H241.346V97ZM238.504 57.7301L237.767 58.4055L237.77 58.4094L238.504 57.7301ZM224.652 56.0966L224.166 55.2224L224.161 55.225L224.652 56.0966ZM220.503 60.4091L219.623 59.9338L219.621 59.9374L220.503 60.4091ZM219 67.2045H218V97H219H220V67.2045H219ZM219 97V96H209.231V97V98H219V97ZM209.231 97H210.231V46.8182H209.231H208.231V97H209.231ZM209.231 46.8182V47.8182H218.608V46.8182V45.8182H209.231V46.8182ZM218.608 46.8182H217.608V54.9858H218.608H219.608V46.8182H218.608ZM218.608 54.9858V55.9858H219.228V54.9858V53.9858H218.608V54.9858ZM219.228 54.9858L220.146 55.3842C221.221 52.9089 222.899 50.9256 225.2 49.419L224.652 48.5824L224.104 47.7458C221.482 49.4627 219.545 51.7483 218.311 54.5873L219.228 54.9858ZM224.652 48.5824L225.196 49.4212C227.478 47.9399 230.401 47.1648 234.028 47.1648V46.1648V45.1648C230.119 45.1648 226.791 46.0014 224.107 47.7436L224.652 48.5824ZM234.028 46.1648V47.1648C237.305 47.1648 240.126 47.8523 242.524 49.1938L243.013 48.321L243.501 47.4483C240.759 45.9147 237.591 45.1648 234.028 45.1648V46.1648ZM243.013 48.321L242.53 49.1969C244.91 50.5082 246.766 52.4659 248.098 55.1091L248.991 54.6591L249.884 54.2091C248.385 51.233 246.255 48.9653 243.495 47.4451L243.013 48.321ZM248.991 54.6591L248.098 55.1091C249.425 57.7423 250.115 61.0516 250.115 65.081H251.115H252.115C252.115 60.8338 251.389 57.1952 249.884 54.2091L248.991 54.6591ZM251.115 65.081H250.115V97H251.115H252.115V65.081H251.115ZM251.115 97V96H241.346V97V98H251.115V97ZM241.346 97H242.346V66.2571H241.346H240.346V97H241.346ZM241.346 66.2571H242.346C242.346 62.4467 241.351 59.3337 239.238 57.0509L238.504 57.7301L237.77 58.4094C239.447 60.2212 240.346 62.7929 240.346 66.2571H241.346ZM238.504 57.7301L239.242 57.0547C237.123 54.7414 234.232 53.6264 230.696 53.6264V54.6264V55.6264C233.781 55.6264 236.095 56.5806 237.767 58.4055L238.504 57.7301ZM230.696 54.6264V53.6264C228.282 53.6264 226.096 54.1501 224.166 55.2224L224.652 56.0966L225.137 56.9707C226.736 56.0829 228.579 55.6264 230.696 55.6264V54.6264ZM224.652 56.0966L224.161 55.225C222.242 56.305 220.729 57.886 219.623 59.9338L220.503 60.4091L221.382 60.8844C222.324 59.1424 223.577 57.8485 225.142 56.9682L224.652 56.0966ZM220.503 60.4091L219.621 59.9374C218.524 61.9876 218 64.4233 218 67.2045H219H220C220 64.6714 220.477 62.5768 221.384 60.8807L220.503 60.4091ZM270.968 94.7131L270.43 95.5563L270.437 95.5602L270.968 94.7131ZM262.996 58.6449L263.894 59.0861L263.895 59.0841L262.996 58.6449ZM271.099 49.4645L270.565 48.6189V48.6189L271.099 49.4645ZM293.609 48.2884L293.18 49.1918L293.185 49.1944L293.609 48.2884ZM300.829 54.169L300.019 54.7556L300.022 54.7601L300.829 54.169ZM304.129 63.0227V64.0227H305.237L305.123 62.92L304.129 63.0227ZM294.621 63.0227L293.645 63.2397L293.819 64.0227H294.621V63.0227ZM291.028 56.946L290.352 57.6828L290.356 57.6867L291.028 56.946ZM276.424 56.554L276.997 57.3736L276.999 57.3724L276.424 56.554ZM271.687 62.6307L272.604 63.0283L272.606 63.0255L271.687 62.6307ZM271.654 81.3835L272.577 80.9978V80.9978L271.654 81.3835ZM276.359 87.5582L275.774 88.3696L275.778 88.3726L276.359 87.5582ZM288.61 88.7344L289.02 89.6466L289.026 89.6439L288.61 88.7344ZM292.433 85.7614L291.657 85.1302L291.65 85.1383L292.433 85.7614ZM294.621 81.1222V80.1222H293.824L293.647 80.899L294.621 81.1222ZM304.129 81.1222L305.123 81.2289L305.242 80.1222H304.129V81.1222ZM300.959 89.8125L301.782 90.3817V90.3817L300.959 89.8125ZM293.87 95.8239L293.428 94.9268L293.425 94.9281L293.87 95.8239ZM283.513 98.0128V97.0128C278.811 97.0128 274.821 95.9496 271.499 93.866L270.968 94.7131L270.437 95.5602C274.128 97.8761 278.502 99.0128 283.513 99.0128V98.0128ZM270.968 94.7131L271.506 93.8698C268.185 91.7532 265.629 88.8385 263.832 85.0996L262.931 85.5327L262.03 85.9657C263.98 90.0241 266.781 93.2298 270.43 95.5563L270.968 94.7131ZM262.931 85.5327L263.832 85.0996C262.034 81.3565 261.121 77.0435 261.121 72.1378H260.121H259.121C259.121 77.2946 260.082 81.9115 262.03 85.9657L262.931 85.5327ZM260.121 72.1378H261.121C261.121 67.1678 262.055 62.8256 263.894 59.0861L262.996 58.6449L262.099 58.2037C260.104 62.2615 259.121 66.9146 259.121 72.1378H260.121ZM262.996 58.6449L263.895 59.0841C265.735 55.32 268.314 52.405 271.632 50.3101L271.099 49.4645L270.565 48.6189C266.914 50.9236 264.091 54.1288 262.098 58.2057L262.996 58.6449ZM271.099 49.4645L271.632 50.3101C274.935 48.2253 278.85 47.1648 283.415 47.1648V46.1648V45.1648C278.529 45.1648 274.232 46.3041 270.565 48.6189L271.099 49.4645ZM283.415 46.1648V47.1648C287.102 47.1648 290.349 47.8488 293.18 49.1918L293.609 48.2884L294.037 47.3849C290.9 45.8965 287.352 45.1648 283.415 45.1648V46.1648ZM293.609 48.2884L293.185 49.1944C296.024 50.5205 298.295 52.3744 300.019 54.7555L300.829 54.169L301.639 53.5825C299.704 50.9106 297.161 48.844 294.032 47.3823L293.609 48.2884ZM300.829 54.169L300.022 54.7601C301.76 57.1315 302.802 59.9108 303.134 63.1254L304.129 63.0227L305.123 62.92C304.758 59.3827 303.6 56.2596 301.635 53.578L300.829 54.169ZM304.129 63.0227V62.0227H294.621V63.0227V64.0227H304.129V63.0227ZM294.621 63.0227L295.598 62.8058C295.028 60.2413 293.718 58.0358 291.699 56.2053L291.028 56.946L290.356 57.6867C292.084 59.254 293.17 61.0996 293.645 63.2397L294.621 63.0227ZM291.028 56.946L291.704 56.2092C289.626 54.303 286.881 53.3977 283.579 53.3977V54.3977V55.3977C286.506 55.3977 288.726 56.1913 290.352 57.6828L291.028 56.946ZM283.579 54.3977V53.3977C280.67 53.3977 278.08 54.1694 275.849 55.7356L276.424 56.554L276.999 57.3724C278.863 56.0636 281.043 55.3977 283.579 55.3977V54.3977ZM276.424 56.554L275.851 55.7343C273.65 57.2729 271.962 59.4574 270.768 62.2358L271.687 62.6307L272.606 63.0255C273.677 60.5332 275.147 58.6665 276.997 57.3736L276.424 56.554ZM271.687 62.6307L270.769 62.2331C269.57 64.9998 268.988 68.2339 268.988 71.9091H269.988H270.988C270.988 68.4403 271.538 65.4889 272.604 63.0283L271.687 62.6307ZM269.988 71.9091H268.988C268.988 75.6662 269.558 78.9617 270.731 81.7692L271.654 81.3835L272.577 80.9978C271.529 78.491 270.988 75.4702 270.988 71.9091H269.988ZM271.654 81.3835L270.731 81.7692C271.902 84.5701 273.577 86.7866 275.774 88.3696L276.359 87.5582L276.943 86.7469C275.089 85.4113 273.627 83.5113 272.577 80.9978L271.654 81.3835ZM276.359 87.5582L275.778 88.3726C278.012 89.9647 280.627 90.7472 283.579 90.7472V89.7472V88.7472C280.999 88.7472 278.8 88.0703 276.939 86.7439L276.359 87.5582ZM283.579 89.7472V90.7472C285.554 90.7472 287.373 90.3864 289.02 89.6465L288.61 88.7344L288.2 87.8222C286.841 88.4327 285.306 88.7472 283.579 88.7472V89.7472ZM288.61 88.7344L289.026 89.6439C290.69 88.8829 292.091 87.795 293.215 86.3844L292.433 85.7614L291.65 85.1383C290.727 86.2978 289.579 87.1919 288.194 87.8249L288.61 88.7344ZM292.433 85.7614L293.208 86.3924C294.361 84.9749 295.152 83.2845 295.596 81.3453L294.621 81.1222L293.647 80.899C293.263 82.5754 292.594 83.9777 291.657 85.1303L292.433 85.7614ZM294.621 81.1222V82.1222H304.129V81.1222V80.1222H294.621V81.1222ZM304.129 81.1222L303.134 81.0154C302.803 84.1037 301.801 86.8397 300.137 89.2433L300.959 89.8125L301.782 90.3817C303.646 87.6887 304.757 84.6312 305.123 81.2289L304.129 81.1222ZM300.959 89.8125L300.137 89.2433C298.476 91.6426 296.248 93.5376 293.428 94.9268L293.87 95.8239L294.312 96.7209C297.416 95.1915 299.914 93.079 301.782 90.3817L300.959 89.8125ZM293.87 95.8239L293.425 94.9281C290.649 96.306 287.355 97.0128 283.513 97.0128V98.0128V99.0128C287.6 99.0128 291.21 98.2603 294.315 96.7196L293.87 95.8239Z" fill="#882F5B" mask="url(#path-2-outside-1_1848_1297)"/>
</svg>
